<svg width="12" height="22" viewBox="0 0 12 22" fill="none" xmlns="http://www.w3.org/2000/svg">
<path d="M11.5629 0.00457747L8.78567 0C5.66551 0 3.64912 2.12509 3.64912 5.41423V7.91055H0.856711C0.615414 7.91055 0.420013 8.1115 0.420013 8.35937V11.9763C0.420013 12.2241 0.615636 12.4249 0.856711 12.4249H3.64912V21.5514C3.64912 21.7993 3.84452 22 4.08582 22H7.72913C7.97043 22 8.16583 21.799 8.16583 21.5514V12.4249H11.4308C11.6721 12.4249 11.8675 12.2241 11.8675 11.9763L11.8688 8.35937C11.8688 8.24036 11.8227 8.12638 11.741 8.04215C11.6592 7.95793 11.5478 7.91055 11.4319 7.91055H8.16583V5.79439C8.16583 4.77727 8.40178 4.26094 9.69159 4.26094L11.5625 4.26025C11.8036 4.26025 11.999 4.0593 11.999 3.81166V0.453169C11.999 0.205757 11.8038 0.00503522 11.5629 0.00457747Z" fill="white"/>
</svg>
