<svg width="109" height="46" viewBox="0 0 109 46" fill="none" xmlns="http://www.w3.org/2000/svg">
<path d="M59.0856 10.7534H51.5884V36.9575H59.0856V10.7534Z" fill="#32325D"/>
<path fill-rule="evenodd" clip-rule="evenodd" d="M43.5534 12.9698L43.0755 10.7536H36.6237V36.9577H44.0911V19.1989C45.8534 16.8929 48.8403 17.3122 49.7663 17.6416V10.7536C48.8105 10.3943 45.3157 9.73543 43.5534 12.9698Z" fill="#32325D"/>
<path fill-rule="evenodd" clip-rule="evenodd" d="M108.4 23.9604C108.4 16.2938 104.697 10.2444 97.6175 10.2444C90.5085 10.2444 86.2073 16.2938 86.2073 23.9005C86.2073 32.9147 91.2851 37.4667 98.5733 37.4667C102.128 37.4667 104.816 36.6581 106.847 35.5201V29.5306C104.816 30.5488 102.486 31.1777 99.5291 31.1777C96.6318 31.1777 94.063 30.1595 93.7344 26.6257H108.341C108.341 26.2364 108.4 24.6791 108.4 23.9604ZM93.6448 21.1153C93.6448 17.7313 95.7058 16.3237 97.5876 16.3237C99.4097 16.3237 101.351 17.7313 101.351 21.1153H93.6448Z" fill="#32325D"/>
<path fill-rule="evenodd" clip-rule="evenodd" d="M74.6776 10.2444C71.7504 10.2444 69.8686 11.622 68.8232 12.5803L68.4349 10.7235H61.8635V45.6424L69.3309 44.0552L69.3608 35.58C70.4361 36.3586 72.0192 37.4667 74.6477 37.4667C79.9944 37.4667 84.8632 33.1542 84.8632 23.6609C84.8333 14.9761 79.9048 10.2444 74.6776 10.2444ZM72.8854 30.8782C71.1231 30.8782 70.0777 30.2493 69.3608 29.4707L69.3309 18.3602C70.1076 17.4917 71.1829 16.8927 72.8854 16.8927C75.6036 16.8927 77.4854 19.9474 77.4854 23.8705C77.4854 27.8835 75.6334 30.8782 72.8854 30.8782Z" fill="#32325D"/>
<path fill-rule="evenodd" clip-rule="evenodd" d="M8.42665 18.3602C8.42665 17.1922 9.38248 16.743 10.9656 16.743C13.2357 16.743 16.1032 17.4318 18.3733 18.6596V11.622C15.8941 10.6337 13.4448 10.2444 10.9656 10.2444C4.90203 10.2444 0.869629 13.4188 0.869629 18.7195C0.869629 26.9851 12.2201 25.6674 12.2201 29.2311C12.2201 30.6087 11.0253 31.0579 9.35261 31.0579C6.87343 31.0579 3.70725 30.0397 1.19819 28.6621V35.7896C3.97607 36.9875 6.78382 37.4966 9.35261 37.4966C15.5655 37.4966 19.8369 34.412 19.8369 29.0514C19.807 20.1271 8.42665 21.7143 8.42665 18.3602Z" fill="#32325D"/>
<path fill-rule="evenodd" clip-rule="evenodd" d="M28.6185 4.25488L21.3303 5.81216L21.3004 29.8001C21.3004 34.2324 24.616 37.4967 29.0367 37.4967C31.486 37.4967 33.2782 37.0474 34.2639 36.5084V30.429C33.308 30.8184 28.5886 32.1959 28.5886 27.7637V17.1323H34.2639V10.7535H28.5886L28.6185 4.25488Z" fill="#32325D"/>
<path fill-rule="evenodd" clip-rule="evenodd" d="M51.5884 8.47752L59.0856 6.86036V0.781006L51.5884 2.36823V8.47752Z" fill="#32325D"/>
</svg>
