<svg width="24" height="18" viewBox="0 0 24 18" fill="none" xmlns="http://www.w3.org/2000/svg">
<path fill-rule="evenodd" clip-rule="evenodd" d="M21.3903 1.11407C22.4182 1.39093 23.2288 2.20135 23.5055 3.22948C24.0197 5.1074 23.9999 9.02181 23.9999 9.02181C23.9999 9.02181 23.9999 12.9163 23.5057 14.7944C23.2288 15.8223 22.4184 16.6329 21.3903 16.9096C19.5122 17.404 12 17.404 12 17.404C12 17.404 4.50731 17.404 2.60961 16.89C1.58148 16.6131 0.771054 15.8025 0.4942 14.7746C0 12.9163 0 9.00203 0 9.00203C0 9.00203 0 5.1074 0.4942 3.22948C0.770871 2.20153 1.60125 1.37115 2.60943 1.09448C4.48753 0.600098 11.9998 0.600098 11.9998 0.600098C11.9998 0.600098 19.5122 0.600098 21.3903 1.11407ZM15.8549 9.00207L9.60788 12.6001V5.40404L15.8549 9.00207Z" fill="white"/>
</svg>
